# xmcd
#
# Track frame offsets:
#	150
#	26453
#	50898
#	75708
#	100707
#	121438
#	141683
#	188317
#	206898
#
# Disc length: 3089 seconds
#
# Revision: 0
# Processed by: cddbd v1.4PL0 Copyright (c) Steve Scherf et al.
# Submitted via: EasyCDDAExtractor 4.6.0.1
#
DISCID=7e0c0f09
DTITLE=LUCINDA WILLIAMS - Fantasy Studios Berkeley 9/26/98
DYEAR=1900
DGENRE=
TTITLE0=Pineola
TTITLE1=Car Wheels On A Gravel Road
TTITLE2=Right In Time
TTITLE3=Drunken Angel
TTITLE4=Greenville
TTITLE5=Can't Let Go
TTITLE6=Joy
TTITLE7=Disgusted
TTITLE8=Changed The Locks
EXTD=
EXTT0=
EXTT1=
EXTT2=
EXTT3=
EXTT4=
EXTT5=
EXTT6=
EXTT7=
EXTT8=
PLAYORDER=
